<svg version="1.1" id="Layer_1" xmlns="http://www.w3.org/2000/svg" xmlns:xlink="http://www.w3.org/1999/xlink" x="0px" y="0px"
	 width="214.194px" height="152.31px" viewBox="0 0 214.194 152.31" enable-background="new 0 0 214.194 152.31"
	 xml:space="preserve">
<g>
	<path d="M141.764,64.611l6.253-25.758c0.099-2.077-0.776-4.535-2.035-6.285c-5.344-6.916-15.035-4.518-20.792-2.904
		c-2.434-1.611-5.536-2.328-9.071-1.756c0.016-0.002,0.024-0.002,0.024,0c0,0.009-0.997,0.159-1.82,0.283
		c0.404-0.941,0.63-1.977,0.63-3.066c0-3.113-1.832-5.792-4.474-7.035v-1.787c0.621,0,3.531,0,3.531,0V9.779c0,0-2.91,0-3.531,0
		c0-0.578,0-3.453,0-3.453h-6.602c0,0,0,2.875,0,3.453c-0.641,0-3.562,0-3.562,0v6.523c0,0,2.922,0,3.562,0v1.78
		c-2.648,1.241-4.486,3.923-4.486,7.042c0,1.09,0.223,2.124,0.629,3.065c-0.295-0.05-1.418-0.242-1.836-0.306
		c-3.535-0.572-6.638,0.145-9.072,1.756c-5.757-1.613-15.449-4.012-20.793,2.904c-1.257,1.749-2.132,4.209-2.034,6.285l6.257,25.781
		h69.222V64.611z M70.197,33.691c4.422-5.703,13.367-3.355,19.18-1.711c3.733-3.152,9.401-2.137,13.562-1.012
		c0.494,0.135,0.926,0,1.114-0.422c0.109-0.328,0-0.75-0.192-0.893c-1.397-1.024-2.308-2.673-2.308-4.536
		c0-2.576,1.734-4.743,4.097-5.409v-5.196h-3.547v-2.961h3.547V8.129h3.031v3.422h3.562v2.961h-3.562v5.189
		c2.376,0.658,4.122,2.831,4.122,5.416c0,1.831-0.879,3.453-2.234,4.48c-0.191,0.146-0.42,0.564-0.266,0.971
		c0.188,0.422,0.701,0.525,1.197,0.4c4.199-1.047,9.689-2.117,13.423,1.035c5.812-1.645,14.758-3.992,19.18,1.711
		c0.991,1.416,1.594,3.117,1.695,4.938l-5.737,23.758H74.245l-5.742-23.781C68.604,36.809,69.207,35.107,70.197,33.691z
		 M109.862,38.243c0.398,0.881,0.001,1.649-0.519,2.449c-0.377,0.585-1.061,1.286-0.842,1.928c0.107,0.315,0.371,0.461,0.616,0.511
		c0.489,0.096,1.015-0.308,1.523-0.699c0.308-0.238,0.626-0.483,0.9-0.584c0.561-0.172,1.231-0.025,1.521,0.49
		c0.479,0.918,0.646,2.543,0.207,3.477c-0.602,1.117-1.497,0.678-2.592,0.102c-0.534-0.279-0.908-0.59-1.448-0.606
		c-0.739-0.017-0.964,1.191-0.991,1.812c-0.091,2.151,1.384,4.227,3.564,5.246c1.285,0.579,2.881,0.855,4.47,0.85
		c1.587-0.008,3.183-0.271,4.468-0.85c2.18-1.02,3.657-3.095,3.564-5.246c-0.027-0.621-0.252-1.829-0.992-1.812
		c-0.539,0.016-0.914,0.326-1.447,0.606c-1.093,0.576-1.99,1.016-2.592-0.102c-0.439-0.934-0.273-2.559,0.206-3.477
		c0.293-0.516,0.962-0.662,1.522-0.49c0.273,0.101,0.592,0.346,0.9,0.584c0.508,0.392,1.033,0.795,1.521,0.699
		c0.246-0.05,0.51-0.195,0.617-0.511c0.219-0.642-0.465-1.343-0.842-1.928c-0.52-0.8-0.916-1.568-0.52-2.449
		c0.316-0.44,0.85-0.708,1.465-0.731l0.314-0.022c-0.303-1.606-0.781-3.617-4.115-4.384c-0.916-0.209-2.25-0.479-4.071-0.479
		c-1.823,0-3.157,0.271-4.073,0.479c-3.334,0.767-3.812,2.777-4.115,4.384l0.314,0.022
		C109.014,37.535,109.547,37.803,109.862,38.243z M111.553,35.375c1.34-0.524,3.031-0.796,4.72-0.811
		c1.687-0.014,3.378,0.287,4.718,0.811c0.51,0.249,0.9,0.605,1.064,0.989c-0.473,0.174-0.84,0.548-1.092,0.854
		c-0.328,0.418-0.459,0.916-0.459,1.426c0,0.468,0.131,0.927,0.297,1.361c-0.66-0.117-1.52-0.184-2.227,0.303
		c-0.513,0.353-1.095,1.109-1.302,2.222c-0.335,1.862-0.25,4.599,1.63,5.635c1.236,0.589,2.383,0.073,3.344-0.442
		c-0.113,0.791-0.922,1.883-1.51,2.31c-1.371,0.849-2.949,1.207-4.464,1.203c-1.517-0.005-3.095-0.354-4.466-1.203
		c-0.588-0.427-1.396-1.519-1.51-2.31c0.961,0.516,2.107,1.031,3.344,0.442c1.882-1.036,1.964-3.772,1.632-5.635
		c-0.21-1.112-0.791-1.869-1.304-2.222c-0.707-0.486-1.566-0.42-2.227-0.303c0.167-0.435,0.297-0.893,0.297-1.361
		c0-0.51-0.13-1.008-0.458-1.426c-0.253-0.307-0.62-0.681-1.092-0.854C110.652,35.98,111.043,35.624,111.553,35.375z
		 M144.397,72.692l-0.043-0.123l-0.054-0.117c-0.602-1.315-2.193-2.729-4.264-2.729H74.263c-1.998,0-3.598,1.377-4.237,2.658
		l-0.076,0.15l-0.054,0.161c-0.397,1.196-0.567,3.091,0.832,5.366l30.92,55.889c0.873,1.485,2.33,3.968,5.435,4.04l0.056,0.001
		l0.053-0.001c3.147-0.071,4.599-2.567,5.468-4.057l30.92-55.887C144.961,75.77,144.791,73.881,144.397,72.692z M141.506,76.896
		l-30.141,54.643c-0.977,1.52-2.346,4.078-4.226,4.078c-1.933,0-3.261-2.581-4.212-4.078L72.794,76.896
		c-0.648-1.023-1.055-2.234-0.648-3.457c0.281-0.562,1.101-1.348,2.117-1.348h65.773c1.023,0,1.852,0.785,2.11,1.348
		C142.553,74.662,142.147,75.873,141.506,76.896z M124.023,84.902l-0.044-0.102c-0.411-0.986-1.552-2.047-3.075-2.047H93.302
		c-1.415,0-2.473,0.954-2.949,1.772l-0.141,0.243l-0.08,0.27c-0.334,1.117-0.143,2.321,0.537,3.391l12.892,23.271
		c0.414,0.736,1.377,2.455,3.528,2.473c2.158-0.017,3.123-1.688,3.535-2.402l12.855-23.289c0.733-1.09,0.938-2.323,0.577-3.475
		L124.023,84.902z M121.514,87.158l-12.625,22.918c-0.416,0.635-0.861,1.727-1.782,1.727c-0.892,0-1.377-1.084-1.756-1.727
		L92.67,87.158c-0.266-0.418-0.422-0.918-0.266-1.441c0.141-0.242,0.493-0.594,0.899-0.594h27.602c0.445,0,0.789,0.352,0.891,0.594
		C121.959,86.24,121.795,86.74,121.514,87.158z M213.943,77.941c-0.49-1.096-1.597-1.751-2.959-1.751h-27.638V0H30.996v76.19H3.208
		c-1.362,0-2.468,0.655-2.959,1.751C0.082,78.314,0,78.707,0,79.103c0,0.791,0.324,1.596,0.947,2.293c0,0,18.5,20.853,18.504,20.854
		c0.386,0.453,1.803,1.907,4.054,1.907h7.492v48.153h152.35v-48.153h7.342c2.25,0,3.666-1.454,4.054-1.907
		c0.002-0.002,18.504-20.854,18.504-20.854c0.623-0.697,0.947-1.502,0.947-2.293C214.193,78.707,214.111,78.314,213.943,77.941z
		 M23.505,101.787c-1.421,0-2.281-1.109-2.281-1.109l-4.876-5.496h31.134c1.188,0,1.329-2.254-0.062-2.254c0,0-27.567,0-33.072,0
		l-5.081-5.727h42.348c1.25-0.125,1.555-2.086,0-2.266c0,0-35.719,0-44.358,0l-4.541-5.117C2.13,79.162,2.294,78.56,3.209,78.56
		h56.75c1.106,0.072,1.281,0.32,2.141,1.758c0.851,1.453,2.968,5.176,3.547,6.344c0.593,1.195,0.929,2.051-0.266,4.078
		c-1.18,2.031-5.992,10.414-6.852,11.855c-0.851,1.434-1.961,4.695,1.711,4.695h17.446c1.632,0,2.25,0.305,2.921,1.613
		c0.727,1.328,7.719,13.705,7.719,13.705c2.985,4.297,1.11,7.93-3.906,7.719c-6.336-0.242-5.43-6.39-5.531-7.867
		c0,0-1.883-2.844-3.742-5.549c0,0-14.25,0-23.532,0c-9.336,0-6.187-5.77-4.593-9.57c0.843-2.035-0.516-5.555-6.352-5.555
		L23.505,101.787L23.505,101.787z M180.972,149.939H33.368v-45.781h7.302c2.798,0,3.659,0.787,3.919,1.331
		c0.231,0.485,0.192,1.09-0.075,1.688c-0.75,1.737-1.684,3.899-1.684,5.996c0,1.076,0.246,2.135,0.888,3.111
		c1.327,2.018,3.91,2.998,7.897,2.998c0,0,20.012,0,22.27,0c0.801,1.187,2.148,3.184,2.64,3.913c0,0.045-0.002,0.089-0.002,0.133
		c0,6.019,2.626,9.17,7.805,9.368c3.262,0.138,5.842-1.066,7.072-3.302c1.272-2.311,0.86-5.276-1.127-8.139l-7.557-13.435
		c-1.236-2.408-2.905-2.9-5.03-2.9l-17.578-0.011c0.077-0.308,0.228-0.716,0.458-1.104l4.499-7.775l2.365-4.1
		c0.83-1.408,1.133-2.537,1.133-3.51c0-1.07-0.366-1.953-0.793-2.814c-0.636-1.283-2.83-5.129-3.625-6.487l-0.034-0.056
		c-0.999-1.67-1.991-2.778-3.858-2.874H33.368V2.371h147.604V76.19h-27.031c-1.867,0.096-2.86,1.204-3.858,2.874l-0.033,0.056
		c-0.795,1.358-2.989,5.204-3.625,6.487c-0.428,0.861-0.793,1.744-0.793,2.814c0,0.973,0.303,2.102,1.133,3.51l2.365,4.1
		l4.498,7.775c0.23,0.389,0.382,0.797,0.458,1.104l-17.577,0.011c-2.125,0-3.794,0.492-5.03,2.9l-7.558,13.435
		c-1.986,2.862-2.397,5.828-1.127,8.139c1.23,2.235,3.811,3.439,7.072,3.302c5.179-0.198,7.805-3.349,7.805-9.368
		c0-0.044-0.002-0.088-0.002-0.133c0.492-0.729,1.84-2.727,2.641-3.913c2.258,0,22.269,0,22.269,0c3.988,0,6.57-0.98,7.898-2.998
		c0.642-0.977,0.888-2.035,0.888-3.111c0-2.097-0.934-4.259-1.684-5.996c-0.268-0.599-0.307-1.203-0.075-1.688
		c0.261-0.544,1.121-1.331,3.919-1.331h7.448v45.78H180.972z M211.476,79.818l-4.538,5.117c-8.642,0-44.36,0-44.36,0
		c-1.555,0.18-1.25,2.141,0,2.266h42.348l-5.08,5.727c-5.506,0-33.072,0-33.072,0c-1.391,0-1.25,2.254-0.062,2.254h31.135
		l-4.877,5.496c0,0-0.859,1.109-2.28,1.109h-17.165c-5.835,0-7.195,3.52-6.352,5.555c1.594,3.801,4.742,9.57-4.594,9.57
		c-9.281,0-23.531,0-23.531,0c-1.858,2.705-3.742,5.549-3.742,5.549c-0.102,1.478,0.805,7.625-5.531,7.867
		c-5.016,0.211-6.891-3.422-3.906-7.719c0,0,6.992-12.377,7.719-13.705c0.672-1.309,1.289-1.613,2.922-1.613h17.445
		c3.672,0,2.562-3.262,1.711-4.695c-0.859-1.441-5.672-9.824-6.85-11.855c-1.196-2.027-0.86-2.883-0.267-4.078
		c0.578-1.168,2.695-4.891,3.547-6.344c0.859-1.438,1.034-1.686,2.141-1.758h56.75C211.898,78.561,212.063,79.162,211.476,79.818z
		 M91.584,38.235c0.398,0.881,0,1.649-0.518,2.45c-0.378,0.584-1.062,1.285-0.843,1.927c0.107,0.315,0.371,0.461,0.617,0.51
		c0.488,0.099,1.014-0.307,1.521-0.698c0.309-0.238,0.626-0.483,0.902-0.584c0.559-0.172,1.23-0.025,1.52,0.49
		c0.481,0.918,0.647,2.542,0.206,3.477c-0.6,1.117-1.497,0.678-2.591,0.102c-0.533-0.279-0.908-0.59-1.447-0.605
		c-0.74-0.016-0.965,1.192-0.99,1.812c-0.094,2.152,1.383,4.227,3.562,5.246c1.287,0.579,2.881,0.855,4.47,0.849
		c1.588-0.006,3.186-0.27,4.469-0.849c2.183-1.02,3.656-3.094,3.564-5.246c-0.026-0.62-0.252-1.828-0.989-1.812
		c-0.539,0.016-0.914,0.326-1.449,0.605c-1.094,0.576-1.987,1.016-2.592-0.102c-0.439-0.935-0.27-2.559,0.207-3.477
		c0.291-0.516,0.963-0.662,1.522-0.49c0.274,0.101,0.592,0.346,0.899,0.584c0.51,0.392,1.032,0.797,1.524,0.698
		c0.244-0.049,0.508-0.194,0.617-0.51c0.217-0.642-0.466-1.343-0.845-1.927c-0.518-0.801-0.916-1.569-0.518-2.45
		c0.315-0.441,0.849-0.708,1.463-0.731l0.316-0.023c-0.302-1.605-0.783-3.616-4.115-4.383c-0.918-0.207-2.25-0.479-4.073-0.479
		c-1.822,0-3.156,0.272-4.072,0.479c-3.334,0.767-3.813,2.777-4.115,4.383l0.314,0.023C90.734,37.527,91.27,37.794,91.584,38.235z
		 M93.272,35.367c1.342-0.523,3.033-0.796,4.72-0.811c1.688-0.015,3.379,0.287,4.719,0.811c0.513,0.249,0.899,0.605,1.064,0.988
		c-0.469,0.175-0.836,0.549-1.09,0.854c-0.33,0.419-0.457,0.917-0.457,1.427c0,0.467,0.127,0.928,0.295,1.36
		c-0.66-0.116-1.519-0.183-2.228,0.304c-0.512,0.353-1.094,1.109-1.301,2.221c-0.334,1.863-0.252,4.6,1.631,5.636
		c1.235,0.589,2.383,0.073,3.342-0.442c-0.112,0.791-0.922,1.885-1.51,2.31c-1.369,0.848-2.949,1.206-4.465,1.204
		c-1.513-0.004-3.095-0.357-4.466-1.204c-0.585-0.425-1.396-1.519-1.506-2.31c0.96,0.516,2.105,1.031,3.34,0.442
		c1.882-1.036,1.966-3.772,1.632-5.636c-0.207-1.111-0.789-1.868-1.302-2.221c-0.709-0.486-1.567-0.42-2.228-0.304
		c0.168-0.433,0.297-0.893,0.297-1.36c0-0.51-0.131-1.008-0.459-1.427c-0.252-0.306-0.619-0.68-1.09-0.854
		C92.373,35.973,92.764,35.616,93.272,35.367z M86.17,50.774c1.18-1.367,1.66-3.188,1.293-4.769
		c-0.252-1.074-1.596-0.576-2.346-0.136c-0.551,0.322-1.076,0.681-1.694,0.506c-0.417-0.098-0.712-0.642-0.782-0.851
		c-0.389-1.213-0.248-2.66,0.353-3.584c0.196-0.26,0.634-0.332,0.957-0.301c0.51,0.031,0.959,0.379,1.386,0.724
		c0.599,0.483,1.464,1.043,2.015,0.354c0.505-0.631-0.12-1.404-0.563-2.019c-0.402-0.56-0.82-1.136-0.767-1.802
		c0.044-0.477,0.23-0.92,0.585-1.208c0.416-0.362,1.002-0.369,1.008-0.369l0.176,0.006l-0.004-0.177
		c-0.022-0.797,0.192-1.67,0.48-2.764c-3.347-1.08-6.74-1.513-10.681-1.262c-3.747,0.379-6.063,1.859-6.963,4.213
		c0,0,1.209,0.133,1.795,0.389c0.334,0.158,1.225,0.668,1.137,1.68c-0.078,0.523-0.371,1.018-0.653,1.494
		c-0.326,0.552-0.972,1.384-0.658,1.896c0.529,0.859,1.369,0.209,1.986-0.279c0.357-0.282,0.752-0.512,1.083-0.635
		c0.347-0.101,1.039-0.117,1.367,0.385c0.552,0.8,0.812,2.867,0.075,3.966c-0.685,0.642-1.27,0.165-2.06-0.161
		c-0.566-0.234-1.025-0.484-1.583-0.589c-0.296-0.082-0.88,0.043-0.907,0.948c0.1,2.631,1.178,4.756,3.6,5.834
		C78.938,53.66,83.553,53.51,86.17,50.774z M74.2,47.832c0.799,0.436,1.772,0.865,2.811,0.6c1.019-0.381,1.715-1.326,2.099-2.82
		c0.336-2.303-0.285-4.342-1.498-5.188c-0.681-0.402-1.381-0.561-2.224-0.436c0.156-0.438,0.156-0.781,0.187-1.219
		c0.018-0.242-0.033-0.484-0.086-0.721c-0.32-0.936-0.961-1.414-1.752-1.734c3.272-2.025,7.924-1.323,11.746-0.766
		c0,0,0.219,0.032,0.405,0.06v0.505c-0.904,0.204-1.563,1.045-1.813,2.137c-0.033,0.172-0.049,0.335-0.049,0.491
		c0,0.5,0.09,0.813,0.268,1.216c-0.795-0.193-1.689-0.258-2.453,0.482c-1.145,1.222-1.551,3.178-1.127,5.378
		c0.299,1.034,0.912,1.864,1.65,2.253c1.131,0.523,2.346,0.167,3.242-0.398c-0.191,1.553-1.921,2.575-2.496,2.869
		c-1.515,0.758-3.921,0.862-5.847,0.252C76.026,50.379,74.606,49.113,74.2,47.832z M126.471,37.327l0.177-0.006
		c0.007,0,0.591,0.007,1.007,0.369c0.356,0.288,0.543,0.731,0.588,1.208c0.052,0.666-0.365,1.242-0.77,1.802
		c-0.442,0.614-1.067,1.388-0.562,2.019c0.553,0.688,1.417,0.129,2.016-0.354c0.426-0.345,0.875-0.692,1.386-0.724
		c0.323-0.031,0.761,0.041,0.957,0.301c0.602,0.924,0.741,2.371,0.354,3.584c-0.071,0.209-0.365,0.753-0.782,0.851
		c-0.619,0.175-1.144-0.184-1.695-0.506c-0.749-0.441-2.094-0.939-2.344,0.136c-0.369,1.58,0.113,3.401,1.291,4.769
		c2.617,2.735,7.233,2.886,10.365,1.491c2.422-1.078,3.5-3.203,3.601-5.834c-0.027-0.905-0.61-1.03-0.907-0.948
		c-0.558,0.104-1.016,0.354-1.584,0.589c-0.789,0.326-1.374,0.803-2.059,0.161c-0.737-1.099-0.478-3.166,0.074-3.966
		c0.328-0.502,1.021-0.485,1.368-0.385c0.33,0.123,0.726,0.353,1.082,0.635c0.618,0.488,1.456,1.139,1.986,0.279
		c0.315-0.513-0.33-1.345-0.657-1.896c-0.282-0.477-0.574-0.971-0.654-1.494c-0.088-1.012,0.804-1.521,1.138-1.68
		c0.586-0.256,1.796-0.389,1.796-0.389c-0.902-2.354-3.217-3.834-6.965-4.213c-3.941-0.251-7.333,0.182-10.68,1.262
		c0.289,1.094,0.502,1.967,0.48,2.764L126.471,37.327z M128.375,35.608c0.186-0.027,0.404-0.06,0.404-0.06
		c3.822-0.558,8.475-1.26,11.746,0.766c-0.791,0.32-1.432,0.799-1.752,1.734c-0.053,0.236-0.103,0.479-0.085,0.721
		c0.03,0.438,0.03,0.781,0.186,1.219c-0.844-0.125-1.543,0.033-2.225,0.436c-1.213,0.846-1.834,2.885-1.498,5.188
		c0.385,1.494,1.08,2.439,2.1,2.82c1.039,0.266,2.012-0.164,2.812-0.6c-0.407,1.281-1.827,2.547-3.064,2.961
		c-1.926,0.61-4.332,0.506-5.848-0.252c-0.574-0.294-2.305-1.316-2.496-2.869c0.896,0.565,2.111,0.922,3.242,0.398
		c0.738-0.389,1.352-1.219,1.65-2.253c0.424-2.2,0.018-4.156-1.127-5.378c-0.764-0.74-1.658-0.676-2.453-0.482
		c0.179-0.402,0.268-0.716,0.268-1.216c0-0.156-0.016-0.319-0.049-0.491c-0.25-1.092-0.91-1.933-1.812-2.137L128.375,35.608
		L128.375,35.608z"/>
</g>
<g>
</g>
<g>
</g>
<g>
</g>
<g>
</g>
<g>
</g>
<g>
</g>
<g>
</g>
<g>
</g>
<g>
</g>
<g>
</g>
<g>
</g>
<g>
</g>
<g>
</g>
<g>
</g>
<g>
</g>
</svg>
